<svg xmlns="http://www.w3.org/2000/svg" viewBox="0 0 1387.79 576.04"><title>Asset 5</title><g id="Layer_2" data-name="Layer 2"><g id="Layer_1-2" data-name="Layer 1"><path d="M587.79,0a99.08,99.08,0,0,1-6.1,18.66,107.25,107.25,0,0,1-9.39,17.27,94.62,94.62,0,0,1-27.9,27.5,97.31,97.31,0,0,1-17.74,8.64L522,73.66c-1.57.49-3.18.86-4.77,1.29l-2.39.63-2.43.48-4.85.93-4.91.62-2.45.31-2.47.16-4.93.3c-1.65.09-3.3,0-4.94.05s-3.3,0-4.95-.05L478,78.1c-3.3-.15-6.55-.51-9.82-.81Q389.87,69.91,311.7,61.44C259.59,55.8,207.5,49.92,155.5,43.22l-39-5.19c-13-1.87-26-3.7-38.94-5.65l-19.44-3.1-9.72-1.55L38.72,26,29,24.19l-4.85-.89-2.42-.44c-.81-.16-1.62-.35-2.42-.52L0,18.05,1.57,12c13.88,3.5,28,6.31,42.14,8.82s28.38,4.67,42.64,6.62q42.78,5.82,85.88,9.09c28.69,2.18,57.46,3.62,86.16,3.51,14.34-.09,28.68-.54,42.81-2a153.9,153.9,0,0,0,20.74-3.42,50.94,50.94,0,0,0,9.38-3.22,16.17,16.17,0,0,0,3.62-2.27,4.67,4.67,0,0,0,1.6-2.17l8.62,1.44c-1.24,17.2-1.84,34.53-2.27,51.86s-.6,34.67-.64,52q-.11,52,1.52,104.09c1.07,34.69,2.61,69.36,4.91,104s5.31,69.14,9.78,103.44c2.25,17.14,4.87,34.22,8.25,51.08,1.69,8.42,3.59,16.79,5.81,25a188,188,0,0,0,8,24,77.43,77.43,0,0,0,5.47,10.8,27.57,27.57,0,0,0,6.95,8,9.1,9.1,0,0,0,3.57,1.61,8.51,8.51,0,0,0,4-.41,23,23,0,0,0,9.06-4.86l1-.9a9,9,0,0,0,1-.95L413.5,555a56,56,0,0,0,3.55-4.66,87.87,87.87,0,0,0,6.13-10.51,194.47,194.47,0,0,0,9.45-23.4c5.41-16.16,9.71-32.88,13.72-49.68s7.57-33.76,11-50.75c6.94-34,13.46-68.12,20-102.24l.07-.4.13-.39a190.59,190.59,0,0,1,15-34.71,100.8,100.8,0,0,1,11.23-16,59.69,59.69,0,0,1,15.8-13A43.49,43.49,0,0,1,540.34,244a49.87,49.87,0,0,1,20.36,4.89,75.42,75.42,0,0,1,16.73,10.93,108.61,108.61,0,0,1,13.58,14l-10.49,8.36a82.91,82.91,0,0,0-17.14-16.47C557,261.25,550,258,542.92,257.44A30.12,30.12,0,0,0,523,262.92l-.58.37-.55.43-1.1.85-1.1.85c-.37.28-.7.63-1,.95l-2.1,1.91-2,2.12-1,1.06-.93,1.14-1.85,2.28c-1.18,1.59-2.31,3.23-3.45,4.86a131.47,131.47,0,0,0-11.22,21.77c-1.52,3.86-3.07,7.72-4.37,11.69a113,113,0,0,0-3.53,11.69,70.24,70.24,0,0,0-1.76,23.3,41.75,41.75,0,0,0,7.52,20.51,32.07,32.07,0,0,0,7.59,7.26,30.27,30.27,0,0,0,9.55,4.24c6.85,1.79,14.4,1.19,21.54-1.15a56.78,56.78,0,0,0,10.45-4.66,72.63,72.63,0,0,0,9.64-6.7,83.88,83.88,0,0,0,8.72-8.17,110.79,110.79,0,0,0,7.79-9.3,148.82,148.82,0,0,0,12.93-20.9A200,200,0,0,0,592,306.45a293.53,293.53,0,0,0,12.67-48.7l14.26,2c-2.12,20.44-4.42,40.84-6.64,61.2s-4.38,40.69-5.47,60.86a245.49,245.49,0,0,0-.06,29.83,87.81,87.81,0,0,0,2,14,33.42,33.42,0,0,0,4.8,11.51,15.21,15.21,0,0,0,8.43,6,32.39,32.39,0,0,0,12.36.66c9-1,18.49-4.13,27.72-7.69l-.55.24a39.68,39.68,0,0,0,17.89-17.52c4.17-7.75,6.64-16.88,8.32-26.3s2.59-19.24,3.38-29.14,1.4-19.92,2.22-30l.18-2.24,1.41-1.78c10-12.74,19.67-26,28.9-39.52s18.09-27.25,26.46-41.27,16.26-28.31,23.48-42.88a408.68,408.68,0,0,0,19.11-44.66c5.36-15.19,9.63-30.73,11.67-46.37a131.87,131.87,0,0,0,1.07-23.34,87.71,87.71,0,0,0-4-22.33,64.12,64.12,0,0,0-26.7-34.41l-2.4-1.51-1.2-.75-1.26-.67-2.5-1.36c-.42-.22-.84-.46-1.26-.67l-1.24-.59a43.65,43.65,0,0,0-9.93-3.41,22.84,22.84,0,0,0-9.24-.05A18.68,18.68,0,0,0,738,29.5a31.83,31.83,0,0,0-6.49,7.56,61.62,61.62,0,0,0-5,9.8,124.29,124.29,0,0,0-6.41,22.4c-3.09,15.58-4.43,31.78-5.1,48s-.52,32.59,0,48.94,1.54,32.72,2.82,49.08c2.58,32.71,6.3,65.38,10.69,98q3.3,24.44,7.15,48.81c2.56,16.23,5.27,32.51,8.24,48.58l-14.26-.51c1.43-5.27,2.91-10.32,4.46-15.43s3.16-10.17,4.82-15.22c3.34-10.11,6.88-20.16,10.72-30.11s7.92-19.83,12.42-29.57a305.64,305.64,0,0,1,15-28.69c5.6-9.32,11.79-18.45,19.67-26.7a71,71,0,0,1,13.52-11.22c1.24-.85,2.68-1.52,4-2.26a23.43,23.43,0,0,1,2.15-1l2.2-.91c.77-.26,1.55-.48,2.32-.72a20.63,20.63,0,0,1,2.37-.63,32.23,32.23,0,0,1,4.92-.72,34.72,34.72,0,0,1,19.1,4.15,54.65,54.65,0,0,1,14.2,11.16c.53.52,1,1.06,1.47,1.6l1.4,1.63,1.41,1.64,1.29,1.68c.85,1.13,1.72,2.25,2.55,3.39l2.35,3.46,1.16,1.74,1.08,1.77,2.16,3.54c1.36,2.39,2.68,4.79,4,7.19s2.48,4.86,3.65,7.3,2.28,4.88,3.4,7.4a102.92,102.92,0,0,1,5.5,16A116.07,116.07,0,0,1,896.38,354a156,156,0,0,1-4.9,32.68,213.28,213.28,0,0,1-10.64,30.86,274.62,274.62,0,0,1-14.53,28.95c-1.35,2.35-2.69,4.63-4.15,7L859.9,457c-.74,1.18-1.6,2.29-2.39,3.44-1.58,2.31-3.38,4.46-5.11,6.67s-3.64,4.26-5.65,6.24-4,3.94-6.09,5.85l-3.25,2.73c-1.09.91-2.25,1.72-3.38,2.58a89.93,89.93,0,0,1-14.66,8.82,71.45,71.45,0,0,1-16.51,5.54,56.57,56.57,0,0,1-17.89.82,44.76,44.76,0,0,1-17.51-6A42.88,42.88,0,0,1,754,480.83a53.29,53.29,0,0,1-7.26-16.43A64,64,0,0,1,744.52,447a55.2,55.2,0,0,1,3-17.58,62.77,62.77,0,0,1,8.12-15.64c6.75-9.52,15.42-17,24.5-23.25a189.27,189.27,0,0,1,28.63-15.82c9.85-4.49,19.9-8.28,30-11.75,20.27-6.86,40.87-12.22,61.44-17.13L931,338.55c5.06-1.24,10.11-2.5,14.93-3.95l1.78-.56,1.7-.58c1.13-.4,2.27-.83,3.4-1.3,2.27-.91,4.53-2,6.77-3.08a193.1,193.1,0,0,0,26-16.1c8.35-6,16.4-12.56,24.18-19.4a334,334,0,0,0,42.66-44.92q4.72-6.1,8.91-12.48a123.41,123.41,0,0,0,7.55-13.05,61.4,61.4,0,0,0,5-13.44,26.83,26.83,0,0,0,.67-6.39c0-.49-.09-1-.11-1.45l-.24-1.36c-.14-.42-.21-.87-.37-1.26a9.37,9.37,0,0,0-.55-1.27,33.79,33.79,0,0,0-8-10.66,36.68,36.68,0,0,0-11.66-7,35.82,35.82,0,0,0-13.36-2.3,34.5,34.5,0,0,0-13.12,2.94,37,37,0,0,0-11.18,7.8,51.38,51.38,0,0,0-8.37,11.39,79.51,79.51,0,0,0-5.56,13.54l-1,3.6-.49,1.8-.38,1.83-.76,3.68c-.24,1.23-.38,2.49-.58,3.73s-.41,2.53-.53,3.71-.2,2.28-.23,3.51l0,3.71c0,1.25.08,2.53.12,3.79,0,2.52.31,5.11.45,7.66s.49,5.14.73,7.71c1.13,10.29,2.76,20.59,4.69,30.82s4.15,20.42,6.79,30.5,5.46,20.11,8.8,30l1.22,3.7c.42,1.23.88,2.44,1.32,3.67l2.66,7.31a116.73,116.73,0,0,0,6.25,13.72,62.46,62.46,0,0,0,8.3,12c.78.9,1.65,1.66,2.46,2.51s1.75,1.49,2.62,2.25,1.83,1.31,2.79,1.88l1.45.79c.24.13.48.28.73.4l.75.3a22.82,22.82,0,0,0,12.72,1.68,37.88,37.88,0,0,0,13-4.78,70.21,70.21,0,0,0,11.92-8.68,122.48,122.48,0,0,0,10.71-10.78,216.92,216.92,0,0,0,18.67-24.62l4.25-6.54,4.22-6.67,8.35-13.36c11.06-17.86,21.77-35.92,31.69-54.36s19.09-37.27,26.33-56.73a195.84,195.84,0,0,0,8.61-29.67,104.72,104.72,0,0,0,1.89-15.06,61.28,61.28,0,0,0-1-14.7,34.16,34.16,0,0,0-5.48-12.91,30.22,30.22,0,0,0-10.47-9.07,49.13,49.13,0,0,0-13.84-4.61,76,76,0,0,0-14.93-1.66,48.15,48.15,0,0,0-14.47,1.91,35.25,35.25,0,0,0-12.48,6.73,38.87,38.87,0,0,0-9.06,11.14,61.69,61.69,0,0,0-5.45,13.81,105.76,105.76,0,0,0-3,30.29,98.05,98.05,0,0,0,5.82,29.84,84.09,84.09,0,0,0,6.47,13.7c.64,1.1,1.37,2.12,2,3.19.35.52.68,1.06,1,1.58l1.14,1.5c.78,1,1.48,2,2.32,3l2.5,2.83a72.53,72.53,0,0,0,24.71,17,101.69,101.69,0,0,0,29.75,6.92,166.31,166.31,0,0,0,31-.62c20.66-2.34,41-7.45,60.92-14l7.12-2.35-4.15,6.24c-5.6,8.43-11.16,16.89-16.32,25.59-2.66,4.3-5.1,8.73-7.63,13.11s-4.87,8.86-7.12,13.38c-9.21,18-17,36.72-21.92,56.24a156.9,156.9,0,0,0-4.65,29.71l-.12,3.76-.05,1.88,0,1.87.06,3.76c.06,1.25.17,2.49.24,3.74.12,2.5.51,5,.79,7.46.16,1.24.42,2.46.62,3.69s.42,2.46.73,3.68l.85,3.65,1,3.59c.32,1.21.74,2.39,1.16,3.57s.79,2.37,1.28,3.52a99.6,99.6,0,0,0,6.52,13.48,108.53,108.53,0,0,0,8.51,12.37l2.4,2.89a15.6,15.6,0,0,0,2.48,2.52,10.52,10.52,0,0,0,6.16,2.43,15.63,15.63,0,0,0,6.8-1.35,33.46,33.46,0,0,0,6.36-3.6,77.82,77.82,0,0,0,11.19-9.93,215.3,215.3,0,0,0,19-23.63,600.71,600.71,0,0,0,32-51.76c9.92-17.72,19.3-35.76,28.35-53.95s17.79-36.56,26.11-55.11q-12.12,28-25.4,55.45c-8.85,18.31-18,36.47-27.76,54.34a601.31,601.31,0,0,1-31.53,52.29,212.44,212.44,0,0,1-18.92,24.1,80.46,80.46,0,0,1-11.48,10.38,36.5,36.5,0,0,1-6.85,4,18.28,18.28,0,0,1-8,1.63,13.46,13.46,0,0,1-7.82-3,19.7,19.7,0,0,1-2.9-2.87l-2.49-2.95a111.3,111.3,0,0,1-8.89-12.64,105.24,105.24,0,0,1-6.88-13.87c-.51-1.19-.9-2.42-1.36-3.63s-.88-2.43-1.23-3.68l-1.12-3.71-.91-3.77c-.33-1.25-.57-2.52-.8-3.79s-.49-2.54-.68-3.81c-.32-2.57-.74-5.12-.88-7.7-.1-1.29-.22-2.57-.29-3.86l-.11-3.87,0-1.93,0-1.93.09-3.87a160.77,160.77,0,0,1,4.45-30.5c4.82-20,12.55-39.1,21.69-57.37,2.24-4.61,4.69-9.09,7.08-13.61s5-8.94,7.6-13.3c5.14-8.84,10.68-17.41,16.26-26l3,3.89c-20.06,6.81-40.72,12.19-61.93,14.77a172.06,172.06,0,0,1-32.11.89,107.79,107.79,0,0,1-31.63-7.11,79,79,0,0,1-27.06-18.36l-2.76-3.08c-.92-1-1.7-2.15-2.56-3.23l-1.25-1.63c-.41-.56-.77-1.14-1.16-1.71-.74-1.15-1.54-2.27-2.24-3.45a90.87,90.87,0,0,1-7.13-14.77,105.24,105.24,0,0,1-6.5-31.89,113.1,113.1,0,0,1,3-32.41,69.15,69.15,0,0,1,6-15.56,46.26,46.26,0,0,1,10.68-13.3,42.81,42.81,0,0,1,15.08-8.26,55.43,55.43,0,0,1,16.72-2.35,83,83,0,0,1,16.43,1.71,56.83,56.83,0,0,1,16,5.28,38.31,38.31,0,0,1,13.26,11.37,42.48,42.48,0,0,1,6.91,15.9,69.83,69.83,0,0,1,1.3,16.74,112.56,112.56,0,0,1-1.93,16.28,203.56,203.56,0,0,1-8.78,31c-7.33,20.1-16.55,39.28-26.45,58s-20.61,37-31.62,55l-8.31,13.49-4.18,6.71-4.31,6.74a227.3,227.3,0,0,1-19.34,25.82,131.78,131.78,0,0,1-11.48,11.69,80,80,0,0,1-13.52,10,47.73,47.73,0,0,1-16.48,6.08,32.94,32.94,0,0,1-18.2-2.3l-1.07-.44c-.35-.16-.68-.35-1-.53l-2-1.09c-1.32-.77-2.53-1.67-3.77-2.52s-2.33-1.87-3.41-2.86-2.12-2-3.08-3.12a71.52,71.52,0,0,1-9.75-13.88,127.11,127.11,0,0,1-6.93-15l-2.77-7.53c-.46-1.25-.94-2.5-1.37-3.76l-1.28-3.79c-3.47-10.09-6.43-20.34-9.15-30.63s-5-20.7-7.08-31.15-3.75-21-5-31.63c-.27-2.67-.57-5.34-.8-8s-.46-5.36-.52-8.11c-.05-1.37-.12-2.72-.15-4.1l0-4.19c0-1.41.18-2.92.27-4.38s.37-2.74.56-4.12.36-2.72.62-4.07l.82-4.07.41-2,.53-2,1.07-4a89.84,89.84,0,0,1,6.36-15.67,62.5,62.5,0,0,1,10.23-14,48.34,48.34,0,0,1,14.55-10.21,45.91,45.91,0,0,1,17.49-4,47.24,47.24,0,0,1,17.6,2.94,48.17,48.17,0,0,1,15.36,9.07A45.74,45.74,0,0,1,1083.78,193a22.66,22.66,0,0,1,1,2.36c.32.84.51,1.68.75,2.53s.33,1.68.46,2.52.17,1.67.2,2.49a38,38,0,0,1-.88,9.3,72.62,72.62,0,0,1-5.86,16.16,134,134,0,0,1-8.19,14.33c-3,4.58-6.1,9-9.38,13.28a308.87,308.87,0,0,1-21,24.47q-11.06,11.67-23.07,22.35c-8,7.11-16.31,13.91-25,20.26a204.58,204.58,0,0,1-27.62,17.28c-2.48,1.23-5,2.44-7.6,3.5-1.3.54-2.62,1-4,1.54l-2,.7-2,.63c-5.27,1.61-10.44,2.93-15.61,4.2l-30.76,7.36c-20.38,4.93-40.6,10.27-60.23,17-9.79,3.38-19.46,7.07-28.78,11.36a176.76,176.76,0,0,0-26.58,14.78c-8.21,5.68-15.68,12.3-21.11,20a49.69,49.69,0,0,0-6.37,12.31,42.21,42.21,0,0,0-2.27,13.43,51.21,51.21,0,0,0,1.83,13.79,40.07,40.07,0,0,0,5.45,12.33,29.38,29.38,0,0,0,9.23,8.78,31,31,0,0,0,12.19,4.08c8.83,1,18.31-1.12,26.91-5.22a76.65,76.65,0,0,0,12.35-7.48c1-.75,2-1.44,2.89-2.23l2.8-2.35c1.79-1.67,3.62-3.3,5.29-5.1s3.31-3.64,4.94-5.48,3.1-3.84,4.48-5.89c.7-1,1.46-2,2.11-3.05l2-3.14c1.32-2.12,2.64-4.39,3.91-6.61A261.64,261.64,0,0,0,868.05,412a200.52,200.52,0,0,0,9.87-28.86,142.4,142.4,0,0,0,4.41-29.72,102,102,0,0,0-3.05-29.31,90.1,90.1,0,0,0-4.79-13.83c-1-2.29-2.14-4.63-3.21-6.95s-2.29-4.55-3.44-6.83-2.43-4.43-3.68-6.62l-2-3.2-1-1.6-1.05-1.54-2.08-3.07c-.73-1-1.48-1.94-2.22-2.92l-1.11-1.45-1.18-1.36-1.17-1.36a16.8,16.8,0,0,0-1.2-1.31,40.78,40.78,0,0,0-10.5-8.31,20.33,20.33,0,0,0-11.34-2.51,18.15,18.15,0,0,0-2.89.42,9.62,9.62,0,0,0-1.44.39l-1.46.44-1.44.62a10.81,10.81,0,0,0-1.44.65,30,30,0,0,0-2.85,1.61,56.59,56.59,0,0,0-10.69,9,108.49,108.49,0,0,0-9.39,11.42c-2.92,4.08-5.66,8.34-8.28,12.71a292.19,292.19,0,0,0-14.2,27.36c-4.32,9.39-8.29,19-12,28.7S756.1,374.12,752.85,384q-2.43,7.43-4.7,14.91c-1.5,5-3,10-4.29,14.93L735.49,445l-5.89-31.6c-3.05-16.37-5.78-32.64-8.39-49s-5-32.72-7.27-49.12c-4.47-32.8-8.24-65.72-10.86-98.8-1.31-16.54-2.31-33.11-2.88-49.74s-.7-33.3,0-50,2.05-33.52,5.36-50.33a138.81,138.81,0,0,1,7.21-25.11A76.55,76.55,0,0,1,719,29a51.38,51.38,0,0,1,4.27-5.8,41.7,41.7,0,0,1,5.35-5.27A33.53,33.53,0,0,1,742.67,11,37.57,37.57,0,0,1,758,11a58.17,58.17,0,0,1,13.43,4.54,107,107,0,0,1,11.7,6.57c1,.57,1.87,1.24,2.78,1.9l2.73,2c1.79,1.37,3.49,2.87,5.23,4.33l2.45,2.37c.81.8,1.66,1.55,2.39,2.43,1.51,1.72,3.1,3.36,4.44,5.22a78.27,78.27,0,0,1,12.73,24,102.3,102.3,0,0,1,4.74,26.24,146.48,146.48,0,0,1-1.19,26C817.2,133.69,812.63,150.14,807,166a423.36,423.36,0,0,1-19.83,46.29c-7.43,15-15.51,29.6-24.06,43.91s-17.57,28.3-27,42S717,325.46,706.6,338.62l1.59-4c-.81,9.91-1.43,19.89-2.22,30s-1.77,20.27-3.59,30.57-4.57,20.79-9.92,30.74a65.07,65.07,0,0,1-4.54,7.22,58.11,58.11,0,0,1-5.71,6.55,54,54,0,0,1-14.21,10l-.27.13-.27.11c-4.94,1.9-10,3.67-15.17,5.18A99.38,99.38,0,0,1,636,458.43a46.65,46.65,0,0,1-18.14-1.2,29.8,29.8,0,0,1-16.16-11.5,40.44,40.44,0,0,1-4.48-8.26,56.28,56.28,0,0,1-2.65-8.38,101.21,101.21,0,0,1-2.37-16.39,259.06,259.06,0,0,1,.08-31.66c1.16-20.79,3.41-41.24,5.62-61.67s4.58-40.76,6.72-61.12l14.26,2a306.13,306.13,0,0,1-13.4,51.1,214.29,214.29,0,0,1-10.65,24.49,162.6,162.6,0,0,1-14.27,22.92,122.8,122.8,0,0,1-8.81,10.46,98.54,98.54,0,0,1-10.12,9.44,87.28,87.28,0,0,1-11.57,8A71.4,71.4,0,0,1,537,392.45a58.17,58.17,0,0,1-14.4,2.75,48.21,48.21,0,0,1-14.94-1.42,44.16,44.16,0,0,1-13.9-6.23,46.06,46.06,0,0,1-11-10.52c-6.05-8.15-9.15-17.87-10.14-27.37a83.62,83.62,0,0,1,2.11-28,129,129,0,0,1,3.94-13c1.39-4.2,3-8.34,4.7-12.47a144.88,144.88,0,0,1,12.49-24c1.32-1.9,2.64-3.8,4-5.66l2.21-2.73c.37-.45.73-.91,1.12-1.35l1.21-1.31,2.44-2.59,2.67-2.44c.45-.4.87-.82,1.36-1.2l1.45-1.12,1.45-1.12.73-.55.78-.51,3.15-2c1.1-.59,2.23-1.15,3.35-1.72l.84-.42.89-.36,1.78-.69c.59-.22,1.17-.49,1.79-.66l1.85-.52a42.31,42.31,0,0,1,15.22-1.33,48.72,48.72,0,0,1,14.43,3.69,68.09,68.09,0,0,1,12.52,7,96.5,96.5,0,0,1,19.92,19.23l-10.48,8.36A94.82,94.82,0,0,0,568.78,270a62.16,62.16,0,0,0-13.71-9.06,36.55,36.55,0,0,0-14.85-3.7,30.09,30.09,0,0,0-14.3,3.64A46.62,46.62,0,0,0,513.66,271a89.12,89.12,0,0,0-9.76,13.83,178.19,178.19,0,0,0-14,32.23l.2-.79c-6.7,34.11-13.29,68.24-20.42,102.33-3.58,17-7.29,34.08-11.37,51.07s-8.58,33.94-14.28,50.72a207.33,207.33,0,0,1-10.18,24.85,99.81,99.81,0,0,1-7.06,11.95,70.42,70.42,0,0,1-4.38,5.67l-2.53,2.68a16.46,16.46,0,0,1-1.36,1.27L417.12,568a34.85,34.85,0,0,1-13.76,7.2,25.81,25.81,0,0,1-4.16.77,18.83,18.83,0,0,1-2.38,0c-.8,0-1.59-.15-2.38-.26a20.93,20.93,0,0,1-8.26-3.59,31.58,31.58,0,0,1-5.83-5.47,50,50,0,0,1-4.28-6,89.46,89.46,0,0,1-6.25-12.45,197.75,197.75,0,0,1-8.39-25.49c-2.26-8.56-4.18-17.16-5.86-25.78-3.37-17.24-5.95-34.54-8.14-51.87-4.35-34.66-7.19-69.42-9.36-104.18s-3.57-69.56-4.41-104.36-1.15-69.61-.86-104.42q.22-26.1,1-52.22c.55-17.42,1.26-34.83,2.63-52.29L345,29.1a13.18,13.18,0,0,1-4.42,6.62,24.92,24.92,0,0,1-5.53,3.47A58.68,58.68,0,0,1,324,42.94a160.33,160.33,0,0,1-22,3.49c-14.6,1.43-29.15,1.78-43.66,1.78-29-.07-58-1.71-86.8-4.09S114,38.45,85.38,34.33c-14.32-2.08-28.62-4.38-42.86-7S14.08,21.72,0,18.05L1.57,12l19,4.38c.8.18,1.58.37,2.38.54l2.41.46,4.81.92,9.62,1.83,9.62,1.84,9.68,1.63L78.45,26.8c12.92,2,25.87,4,38.81,5.95l38.9,5.5Q234,48.9,312.1,58q78.06,9.21,156.23,17.46c3.26.33,6.52.73,9.76.91l4.87.35c1.63.1,3.26.06,4.88.09s3.26.08,4.89,0l4.87-.25L500,76.4l2.43-.27,4.85-.56,4.8-.86,2.4-.44,2.37-.6c1.57-.41,3.17-.75,4.72-1.23l4.65-1.5a96.88,96.88,0,0,0,17.62-8.34,94.2,94.2,0,0,0,28-27,106.7,106.7,0,0,0,9.58-17.08A98.62,98.62,0,0,0,587.79,0Z"/></g></g></svg>