<svg id="Group_10" data-name="Group 10" xmlns="http://www.w3.org/2000/svg" viewBox="0 0 1387.4 575.544">
  <path id="Path_37" data-name="Path 37" d="M587.8,0a97.293,97.293,0,0,1-6.1,18.7A115.846,115.846,0,0,1,572.3,36a96.2,96.2,0,0,1-27.9,27.5,99.7,99.7,0,0,1-17.7,8.6L522,73.7c-1.6.5-3.2.9-4.8,1.3l-2.4.6-2.4.5-4.9.9-4.9.6-2.5.3-2.5.2-4.9.3c-1.6.1-3.3,0-4.9,0h-4.9l-4.9-.3c-3.3-.1-6.6-.5-9.8-.8C416,72.4,363.8,67,311.7,61.4S207.5,49.9,155.5,43.2l-39-5.2c-13-1.9-26-3.7-38.9-5.6L58.2,29.3l-9.7-1.6L38.7,26,29,24.2l-4.8-.9-2.4-.4a20.481,20.481,0,0,0-2.4-.5L0,18l1.6-6c13.9,3.5,28,6.3,42.1,8.8Q65,24.55,86.3,27.4c28.5,3.9,57.2,6.9,85.9,9.1s57.5,3.6,86.2,3.5c14.3-.1,28.7-.5,42.8-2a171.854,171.854,0,0,0,20.7-3.4,51.893,51.893,0,0,0,9.4-3.2,13.938,13.938,0,0,0,3.6-2.3,4.624,4.624,0,0,0,1.6-2.2l8.6,1.4c-1.2,17.2-1.8,34.5-2.3,51.9-.4,17.3-.6,34.7-.6,52-.1,34.7.5,69.4,1.5,104.1,1.1,34.7,2.6,69.4,4.9,104s5.3,69.1,9.8,103.4c2.3,17.1,4.9,34.2,8.3,51.1,1.7,8.4,3.6,16.8,5.8,25a192.952,192.952,0,0,0,8,24,72.926,72.926,0,0,0,5.5,10.8,27.731,27.731,0,0,0,6.9,8,8.184,8.184,0,0,0,3.6,1.6,8.54,8.54,0,0,0,4-.4,21.932,21.932,0,0,0,9.1-4.9l1-.9a9.425,9.425,0,0,0,1-1l1.9-2.1a40.95,40.95,0,0,0,3.5-4.7,89.991,89.991,0,0,0,6.1-10.5,178.506,178.506,0,0,0,9.4-23.4c5.4-16.2,9.7-32.9,13.7-49.7s7.6-33.8,11.1-50.8q10.35-51,20-102.2l.1-.4.1-.4a188.536,188.536,0,0,1,15-34.7,100.356,100.356,0,0,1,11.2-16,59.088,59.088,0,0,1,15.8-13,43.634,43.634,0,0,1,20.7-5.3,50.182,50.182,0,0,1,20.4,4.9,76.307,76.307,0,0,1,16.7,10.9,112.257,112.257,0,0,1,13.6,14L580.4,282a83.432,83.432,0,0,0-17.1-16.5c-6.4-4.4-13.4-7.7-20.5-8.2a30.375,30.375,0,0,0-20,5.5l-.6.4-.5.4-1.1.9-1.1.8c-.4.3-.7.6-1.1.9l-2.1,1.9-2,2.1-1,1.1-.9,1.1-1.9,2.3c-1.2,1.6-2.3,3.2-3.5,4.9a124.4,124.4,0,0,0-11.2,21.8c-1.5,3.9-3.1,7.7-4.4,11.7a110.443,110.443,0,0,0-3.5,11.7,71.117,71.117,0,0,0-1.8,23.3,42,42,0,0,0,7.5,20.5,32.938,32.938,0,0,0,7.6,7.3,27.567,27.567,0,0,0,9.6,4.2c6.8,1.8,14.4,1.2,21.5-1.1a57.164,57.164,0,0,0,10.4-4.7,63.5,63.5,0,0,0,9.6-6.7,74.774,74.774,0,0,0,8.7-8.2,116.281,116.281,0,0,0,7.8-9.3,139.774,139.774,0,0,0,12.9-20.9,202.705,202.705,0,0,0,9.9-22.9,297.856,297.856,0,0,0,12.7-48.7l14.3,2c-2.1,20.4-4.4,40.8-6.6,61.2s-4.4,40.7-5.5,60.9a247.155,247.155,0,0,0-.1,29.8,89.069,89.069,0,0,0,2,14,31.667,31.667,0,0,0,4.8,11.5,15.864,15.864,0,0,0,8.4,6,33.419,33.419,0,0,0,12.4.7c9-1,18.5-4.1,27.7-7.7l-.5.2a39.856,39.856,0,0,0,17.9-17.5c4.2-7.7,6.6-16.9,8.3-26.3s2.6-19.2,3.4-29.1,1.4-19.9,2.2-30l.2-2.2,1.4-1.8c10-12.7,19.7-26,28.9-39.5s18.1-27.3,26.5-41.3,16.3-28.3,23.5-42.9a416.864,416.864,0,0,0,19.1-44.7,230.378,230.378,0,0,0,11.7-46.4,140.411,140.411,0,0,0,1.1-23.3,86.95,86.95,0,0,0-4-22.3,64.243,64.243,0,0,0-26.7-34.4L772.3,33l-1.2-.8-1.3-.7-2.5-1.4c-.4-.2-.8-.5-1.3-.7l-1.2-.6a40.126,40.126,0,0,0-9.9-3.4,23.806,23.806,0,0,0-9.2-.1,18.323,18.323,0,0,0-7.9,3.9,32.526,32.526,0,0,0-6.5,7.6,69.226,69.226,0,0,0-5,9.8A115.8,115.8,0,0,0,719.9,69c-3.1,15.6-4.4,31.8-5.1,48-.6,16.2-.5,32.6,0,48.9.6,16.4,1.5,32.7,2.8,49.1,2.6,32.7,6.3,65.4,10.7,98,2.2,16.3,4.6,32.6,7.1,48.8,2.6,16.2,5.3,32.5,8.2,48.6l-14.3-.5c1.4-5.3,2.9-10.3,4.5-15.4,1.5-5.1,3.2-10.2,4.8-15.2,3.3-10.1,6.9-20.2,10.7-30.1,3.8-10,7.9-19.8,12.4-29.6a314.043,314.043,0,0,1,15-28.7c5.6-9.3,11.8-18.4,19.7-26.7A67.619,67.619,0,0,1,809.9,253c1.2-.9,2.7-1.5,4-2.3a19.994,19.994,0,0,1,2.1-1l2.2-.9a20.154,20.154,0,0,1,2.3-.7,16.837,16.837,0,0,1,2.4-.6,26.3,26.3,0,0,1,4.9-.7,35.3,35.3,0,0,1,19.1,4.1,52.945,52.945,0,0,1,14.2,11.2c.5.5,1,1.1,1.5,1.6l1.4,1.6,1.4,1.6,1.3,1.7c.9,1.1,1.7,2.2,2.5,3.4l2.4,3.5,1.2,1.7,1.1,1.8,2.2,3.5c1.4,2.4,2.7,4.8,4,7.2,1.2,2.4,2.5,4.9,3.7,7.3,1.1,2.5,2.3,4.9,3.4,7.4a104.326,104.326,0,0,1,5.5,16,113.684,113.684,0,0,1,3.4,33.3,155.6,155.6,0,0,1-4.9,32.7,208.577,208.577,0,0,1-10.6,30.9,301.584,301.584,0,0,1-14.5,29c-1.4,2.4-2.7,4.6-4.1,7l-2.3,3.5a41.442,41.442,0,0,1-2.4,3.4c-1.6,2.3-3.4,4.5-5.1,6.7-1.9,2.1-3.6,4.3-5.6,6.2a83.584,83.584,0,0,1-6.1,5.8l-3.2,2.7c-1.1.9-2.3,1.7-3.4,2.6a90.764,90.764,0,0,1-14.7,8.8,66.713,66.713,0,0,1-16.5,5.5,53.577,53.577,0,0,1-17.9.8,44.5,44.5,0,0,1-17.5-6,42.059,42.059,0,0,1-13.4-12.8,53.271,53.271,0,0,1-7.3-16.4,63.892,63.892,0,0,1-2.2-17.4,59.1,59.1,0,0,1,3-17.6,65.952,65.952,0,0,1,8.1-15.6c6.7-9.5,15.4-17,24.5-23.2a195.169,195.169,0,0,1,28.6-15.8,305.053,305.053,0,0,1,30-11.7c20.3-6.9,40.9-12.2,61.4-17.1l30.7-7.2c5.1-1.2,10.1-2.5,14.9-3.9l1.8-.6,1.7-.6c1.1-.4,2.3-.8,3.4-1.3,2.3-.9,4.5-2,6.8-3.1a196.207,196.207,0,0,0,26-16.1c8.3-6,16.4-12.6,24.2-19.4a335.358,335.358,0,0,0,42.7-44.9c3.1-4.1,6.1-8.2,8.9-12.5a106.424,106.424,0,0,0,7.5-13,60.833,60.833,0,0,0,5-13.4,29.134,29.134,0,0,0,.7-6.4c0-.5-.1-1-.1-1.5l-.2-1.4a6.462,6.462,0,0,0-.4-1.3c-.2-.4-.2-.7-.5-1.3a34.84,34.84,0,0,0-8.1-10.7,37.562,37.562,0,0,0-11.7-7,36.018,36.018,0,0,0-13.4-2.3,34.69,34.69,0,0,0-13.1,2.9,37.1,37.1,0,0,0-11.2,7.8,53.346,53.346,0,0,0-8.4,11.4,85.1,85.1,0,0,0-5.6,13.5l-1,3.6-.5,1.8-.4,1.8-.8,3.7c-.2,1.2-.4,2.5-.6,3.7s-.4,2.5-.5,3.7-.2,2.3-.2,3.5v3.7c0,1.3.1,2.5.1,3.8,0,2.5.3,5.1.5,7.7s.5,5.1.7,7.7c1.1,10.3,2.8,20.6,4.7,30.8,2,10.2,4.1,20.4,6.8,30.5,2.6,10.1,5.5,20.1,8.8,30l1.2,3.7c.4,1.2.9,2.4,1.3,3.7l2.7,7.3a113.177,113.177,0,0,0,6.3,13.7,63.957,63.957,0,0,0,8.3,12,29.492,29.492,0,0,0,2.5,2.5c.8.8,1.8,1.5,2.6,2.2.9.6,1.8,1.3,2.8,1.9l1.5.8c.2.1.5.3.7.4l.8.3a22.96,22.96,0,0,0,12.7,1.7,36.725,36.725,0,0,0,13-4.8,65.911,65.911,0,0,0,11.9-8.7,121.349,121.349,0,0,0,10.7-10.8,227.382,227.382,0,0,0,18.7-24.6l4.2-6.5,4.2-6.7,8.4-13.4c11.1-17.9,21.8-35.9,31.7-54.4,9.9-18.4,19.1-37.3,26.3-56.7a193.673,193.673,0,0,0,8.6-29.7,95.923,95.923,0,0,0,1.9-15.1,64.938,64.938,0,0,0-1-14.7,32.388,32.388,0,0,0-5.5-12.9,29.906,29.906,0,0,0-10.5-9.1,48.753,48.753,0,0,0-13.8-4.6,76.5,76.5,0,0,0-14.9-1.7,49.765,49.765,0,0,0-14.5,1.9,36.874,36.874,0,0,0-12.5,6.7,40.978,40.978,0,0,0-9.1,11.1,66.239,66.239,0,0,0-5.5,13.8,109.507,109.507,0,0,0-3,30.3,97.893,97.893,0,0,0,5.8,29.8,81.97,81.97,0,0,0,6.5,13.7c.6,1.1,1.4,2.1,2,3.2.3.5.7,1.1,1,1.6l1.1,1.5c.8,1,1.5,2,2.3,3l2.5,2.8a71.416,71.416,0,0,0,24.7,17,100.446,100.446,0,0,0,29.7,6.9,169.048,169.048,0,0,0,31-.6c20.7-2.3,41-7.5,60.9-14l7.1-2.3-4.1,6.2c-5.6,8.4-11.2,16.9-16.3,25.6-2.7,4.3-5.1,8.7-7.6,13.1-2.4,4.4-4.9,8.9-7.1,13.4-9.2,18-17,36.7-21.9,56.2a158.137,158.137,0,0,0-4.6,29.7l-.1,3.8-.1,1.9v1.9l.1,3.8c.1,1.2.2,2.5.2,3.7.1,2.5.5,5,.8,7.5.2,1.2.4,2.5.6,3.7s.4,2.5.7,3.7l.8,3.7,1,3.6a25.336,25.336,0,0,0,1.2,3.6,36.169,36.169,0,0,0,1.3,3.5,98.5,98.5,0,0,0,6.5,13.5,113.5,113.5,0,0,0,8.5,12.4l2.4,2.9a14.773,14.773,0,0,0,2.5,2.5,10.193,10.193,0,0,0,6.2,2.4,16.147,16.147,0,0,0,6.8-1.3,37.155,37.155,0,0,0,6.4-3.6,80.211,80.211,0,0,0,11.2-9.9,228.031,228.031,0,0,0,19-23.6,571.99,571.99,0,0,0,32-51.8c9.9-17.7,19.3-35.8,28.4-54,9-18.2,17.8-36.6,26.1-55.1-8.1,18.7-16.6,37.1-25.4,55.5-8.8,18.3-18,36.5-27.8,54.3s-20,35.5-31.5,52.3a208.784,208.784,0,0,1-18.9,24.1,81.812,81.812,0,0,1-11.5,10.4,41.845,41.845,0,0,1-6.8,4,18.188,18.188,0,0,1-8,1.6,13.011,13.011,0,0,1-7.8-3,15.924,15.924,0,0,1-2.9-2.9l-2.5-2.9a124.244,124.244,0,0,1-8.9-12.6,105.718,105.718,0,0,1-6.9-13.9c-.5-1.2-.9-2.4-1.4-3.6-.4-1.2-.9-2.4-1.2-3.7l-1.1-3.7-.9-3.8c-.3-1.3-.6-2.5-.8-3.8s-.5-2.5-.7-3.8c-.3-2.6-.7-5.1-.9-7.7q-.15-1.95-.3-3.9l-.1-3.9-.1-1.9v-1.9l.1-3.9a157.044,157.044,0,0,1,4.5-30.5c4.8-20,12.6-39.1,21.7-57.4,2.2-4.6,4.7-9.1,7.1-13.6,2.5-4.4,4.9-8.9,7.6-13.3,5.1-8.8,10.7-17.4,16.3-26l3,3.9c-20.1,6.8-40.7,12.2-61.9,14.8a171.828,171.828,0,0,1-32.1.9,108.073,108.073,0,0,1-31.6-7.1,79.491,79.491,0,0,1-27.1-18.4l-2.8-3.1c-.9-1-1.7-2.2-2.6-3.2l-1.3-1.6c-.4-.6-.8-1.1-1.2-1.7-.7-1.2-1.5-2.3-2.2-3.5a83.779,83.779,0,0,1-7.1-14.8,102.424,102.424,0,0,1-6.5-31.9,111.038,111.038,0,0,1,3-32.4,70.736,70.736,0,0,1,6-15.6,45.8,45.8,0,0,1,10.7-13.3,42.2,42.2,0,0,1,15.1-8.3,53.451,53.451,0,0,1,16.7-2.3,80.749,80.749,0,0,1,16.4,1.7,55.753,55.753,0,0,1,16,5.3,38.226,38.226,0,0,1,13.3,11.4,41.692,41.692,0,0,1,6.9,15.9,67.641,67.641,0,0,1,1.3,16.7,109.914,109.914,0,0,1-1.9,16.3,200.353,200.353,0,0,1-8.8,31c-7.3,20.1-16.6,39.3-26.5,58s-20.6,37-31.6,55l-8.3,13.5L1129,349l-4.3,6.7a240.549,240.549,0,0,1-19.3,25.8,126.792,126.792,0,0,1-11.5,11.7,84.278,84.278,0,0,1-13.5,10,47.32,47.32,0,0,1-16.5,6.1,33.527,33.527,0,0,1-18.2-2.3l-1.1-.4a4.671,4.671,0,0,0-1-.5l-2-1.1c-1.3-.8-2.5-1.7-3.8-2.5-1.1-1-2.3-1.9-3.4-2.9-1-1-2.1-2-3.1-3.1a72.928,72.928,0,0,1-9.8-13.9,126.421,126.421,0,0,1-6.9-15l-2.8-7.5c-.5-1.3-.9-2.5-1.4-3.8l-1.3-3.8c-3.5-10.1-6.4-20.3-9.2-30.6-2.7-10.3-5-20.7-7.1-31.1-2-10.5-3.7-21-5-31.6-.3-2.7-.6-5.3-.8-8s-.5-5.4-.5-8.1c0-1.4-.1-2.7-.1-4.1v-4.2c0-1.4.2-2.9.3-4.4.1-1.4.4-2.7.6-4.1s.4-2.7.6-4.1l.8-4.1.4-2,.5-2,1.1-4a87.768,87.768,0,0,1,6.4-15.7,62.7,62.7,0,0,1,10.2-14,47.6,47.6,0,0,1,14.5-10.2,46.081,46.081,0,0,1,17.5-4,47.855,47.855,0,0,1,17.6,2.9,49,49,0,0,1,15.4,9.1,44.978,44.978,0,0,1,10.9,14.3,19.427,19.427,0,0,1,1,2.4c.3.8.5,1.7.8,2.5.2.8.3,1.7.5,2.5a21.057,21.057,0,0,1,.2,2.5,39.69,39.69,0,0,1-.9,9.3,72.728,72.728,0,0,1-5.9,16.2,117.894,117.894,0,0,1-8.2,14.3c-3,4.6-6.1,9-9.4,13.3a307.884,307.884,0,0,1-21,24.5c-7.4,7.8-15.1,15.2-23.1,22.3s-16.3,13.9-25,20.3a210.125,210.125,0,0,1-27.6,17.3c-2.5,1.2-5,2.4-7.6,3.5-1.3.5-2.6,1.1-4,1.5l-2,.7-2,.6c-5.3,1.6-10.4,2.9-15.6,4.2l-30.8,7.4c-20.4,4.9-40.6,10.3-60.2,17-9.8,3.4-19.5,7.1-28.8,11.4A180.984,180.984,0,0,0,787,401c-8.2,5.7-15.7,12.3-21.1,20a51.53,51.53,0,0,0-6.4,12.3,43.338,43.338,0,0,0-2.3,13.4,53.9,53.9,0,0,0,1.8,13.8,41.441,41.441,0,0,0,5.4,12.3,30.817,30.817,0,0,0,9.2,8.8,31.5,31.5,0,0,0,12.2,4.1c8.8,1,18.3-1.1,26.9-5.2a83.512,83.512,0,0,0,12.4-7.5,31.552,31.552,0,0,0,2.9-2.2l2.8-2.4c1.8-1.7,3.6-3.3,5.3-5.1,1.7-1.7,3.3-3.6,4.9-5.5,1.5-2,3.1-3.8,4.5-5.9.7-1,1.5-2,2.1-3l2-3.1c1.3-2.1,2.6-4.4,3.9-6.6a260.8,260.8,0,0,0,13.7-27.5,201.153,201.153,0,0,0,9.9-28.9,137.56,137.56,0,0,0,4.4-29.7,102.845,102.845,0,0,0-3-29.3,83.471,83.471,0,0,0-4.8-13.8c-1-2.3-2.1-4.6-3.2-7-1.1-2.3-2.3-4.5-3.4-6.8-1.2-2.2-2.4-4.4-3.7-6.6l-2-3.2-1-1.6-1-1.5-2.1-3.1c-.7-1-1.5-1.9-2.2-2.9l-1.1-1.5-1.2-1.4-1.2-1.4a15.379,15.379,0,0,0-1.2-1.3,40.4,40.4,0,0,0-10.5-8.3,20.1,20.1,0,0,0-11.3-2.5,28.854,28.854,0,0,0-2.9.4c-.5.1-1,.3-1.4.4l-1.5.4-1.4.6a6.11,6.11,0,0,0-1.4.7c-.9.5-1.9,1-2.8,1.6a56.2,56.2,0,0,0-10.7,9,116.238,116.238,0,0,0-9.4,11.4c-2.9,4.1-5.7,8.3-8.3,12.7a295.471,295.471,0,0,0-14.2,27.4c-4.3,9.4-8.3,19-12,28.7s-7.2,19.5-10.4,29.5c-1.6,5-3.2,9.9-4.7,14.9s-3,10-4.3,14.9l-8.4,31.1L728.9,413c-3.1-16.4-5.8-32.6-8.4-49-2.6-16.3-5-32.7-7.3-49.1-4.5-32.8-8.2-65.7-10.9-98.8-1.3-16.5-2.3-33.1-2.9-49.7-.5-16.6-.7-33.3,0-50s2-33.5,5.4-50.3A137.075,137.075,0,0,1,712,41a77.809,77.809,0,0,1,6.2-12.2,57.868,57.868,0,0,1,4.3-5.8,53.032,53.032,0,0,1,5.3-5.3,32.719,32.719,0,0,1,14.1-6.9,35.867,35.867,0,0,1,15.3,0,57.088,57.088,0,0,1,13.4,4.5,103.3,103.3,0,0,1,11.7,6.6,27.5,27.5,0,0,1,2.8,1.9l2.7,2c1.8,1.4,3.5,2.9,5.2,4.3l2.5,2.4c.8.8,1.7,1.6,2.4,2.4,1.5,1.7,3.1,3.4,4.4,5.2a76.974,76.974,0,0,1,12.7,24,99.676,99.676,0,0,1,4.7,26.2,149.6,149.6,0,0,1-1.2,26c-2.2,17.1-6.8,33.5-12.4,49.4A421.128,421.128,0,0,1,786.3,212c-7.4,15-15.5,29.6-24.1,43.9s-17.6,28.3-27,42-19.2,27.2-29.5,40.4l1.6-4c-.8,9.9-1.4,19.9-2.2,30s-1.8,20.3-3.6,30.6c-1.9,10.3-4.6,20.8-9.9,30.7a66.747,66.747,0,0,1-4.5,7.2,58.923,58.923,0,0,1-5.7,6.5,53.722,53.722,0,0,1-14.2,10l-.3.1-.3.1c-4.9,1.9-10,3.7-15.2,5.2a104.538,104.538,0,0,1-16.3,3.4,46.97,46.97,0,0,1-18.1-1.2,30.586,30.586,0,0,1-9.1-4.4,31.875,31.875,0,0,1-7.1-7.1,44.921,44.921,0,0,1-4.5-8.3,54.04,54.04,0,0,1-2.6-8.4,95.5,95.5,0,0,1-2.4-16.4,239.3,239.3,0,0,1,.1-31.7c1.2-20.8,3.4-41.2,5.6-61.7,2.2-20.4,4.6-40.8,6.7-61.1l14.3,2a305.161,305.161,0,0,1-13.4,51.1A229.274,229.274,0,0,1,594,335.4a156.209,156.209,0,0,1-14.3,22.9c-2.8,3.6-5.6,7.1-8.8,10.5a100.293,100.293,0,0,1-10.1,9.4,95.294,95.294,0,0,1-11.6,8,73.429,73.429,0,0,1-13.1,5.8,57.421,57.421,0,0,1-14.4,2.8,49.962,49.962,0,0,1-14.9-1.4,44.542,44.542,0,0,1-13.9-6.2,49.856,49.856,0,0,1-11-10.5c-6-8.1-9.1-17.9-10.1-27.4a84.377,84.377,0,0,1,2.1-28c1.1-4.5,2.5-8.9,3.9-13,1.4-4.2,3.1-8.3,4.7-12.5a148.226,148.226,0,0,1,12.5-24c1.3-1.9,2.6-3.8,4-5.7l2.2-2.7c.4-.5.7-.9,1.1-1.4l1.2-1.3,2.4-2.6,2.7-2.4c.5-.4.9-.8,1.4-1.2l1.5-1.1,1.5-1.1.7-.6.8-.5,3.1-2a35.918,35.918,0,0,1,3.4-1.7l.8-.4.9-.4,1.8-.7c.6-.2,1.2-.5,1.8-.7l1.8-.5a41.152,41.152,0,0,1,15.2-1.3,49.226,49.226,0,0,1,14.4,3.7,65.969,65.969,0,0,1,12.5,7,98.064,98.064,0,0,1,19.9,19.2l-10.5,8.4a90.845,90.845,0,0,0-11.8-12.2,60.457,60.457,0,0,0-13.7-9.1,36.385,36.385,0,0,0-14.9-3.7,30.05,30.05,0,0,0-14.3,3.6,46.674,46.674,0,0,0-12.3,10.1,92.542,92.542,0,0,0-9.8,13.8,185.44,185.44,0,0,0-14,32.2l.2-.8c-6.7,34.1-13.3,68.2-20.4,102.3-3.6,17-7.3,34.1-11.4,51.1s-8.6,33.9-14.3,50.7a203.664,203.664,0,0,1-10.2,24.9,91.094,91.094,0,0,1-7.1,11.9c-1.3,2-2.9,3.8-4.4,5.7l-2.5,2.7a8.633,8.633,0,0,1-1.4,1.3l-1.4,1.2a35.753,35.753,0,0,1-13.8,7.2,35.091,35.091,0,0,1-4.2.8,19.223,19.223,0,0,1-2.4,0,9.862,9.862,0,0,1-2.4-.3,21.6,21.6,0,0,1-8.3-3.6,27.72,27.72,0,0,1-5.8-5.5,47.437,47.437,0,0,1-4.3-6,96.442,96.442,0,0,1-6.3-12.4,200.058,200.058,0,0,1-8.4-25.5c-2.3-8.6-4.2-17.2-5.9-25.8-3.4-17.2-5.9-34.5-8.1-51.9-4.3-34.7-7.2-69.4-9.4-104.2q-3.15-52.2-4.4-104.4-1.2-52.2-.9-104.4c.2-17.4.4-34.8,1-52.2s1.3-34.8,2.6-52.3l8.6,1.4a12.864,12.864,0,0,1-4.4,6.6,28.043,28.043,0,0,1-5.5,3.5,60.747,60.747,0,0,1-11.1,3.8,152.469,152.469,0,0,1-22,3.5c-14.6,1.4-29.1,1.8-43.7,1.8-29-.1-58-1.7-86.8-4.1s-57.6-5.7-86.2-9.8c-14.3-2.1-28.6-4.4-42.9-7-12.6-2-26.8-5-40.9-8.7l1.6-6,19,4.4a20.481,20.481,0,0,0,2.4.5l2.4.5,4.8.9,9.6,1.8,9.6,1.8,9.7,1.6,19.4,3.2c12.9,2,25.9,4,38.8,6l38.9,5.5q77.85,10.65,155.9,19.7,78,9.15,156.2,17.5c3.3.3,6.5.7,9.8.9l4.9.3c1.6.1,3.3.1,4.9.1s3.3.1,4.9,0l4.9-.2,2.4-.1,2.4-.3,4.9-.6,4.8-.9,2.4-.4,2.4-.6c1.6-.4,3.2-.8,4.7-1.2l4.6-1.5a94.353,94.353,0,0,0,17.6-8.3,94.826,94.826,0,0,0,28-27,110.181,110.181,0,0,0,9.6-17.1A98.388,98.388,0,0,0,587.8,0Z"/>
</svg>
