<svg id="Group_14" data-name="Group 14" xmlns="http://www.w3.org/2000/svg" viewBox="0 0 1011 612">
  <defs>
    <style>
      .cls-1, .cls-2 {
        fill: none;
      }

      .cls-1 {
        opacity: 0.75;
      }

      .cls-2 {
        stroke: #000;
        stroke-linecap: round;
        stroke-linejoin: round;
        stroke-miterlimit: 10;
        stroke-width: 20px;
      }
    </style>
  </defs>
  <rect id="Rectangle_75" data-name="Rectangle 75" class="cls-1" width="1011" height="612"/>
  <g id="Group_13" data-name="Group 13">
    <path id="Path_39" data-name="Path 39" class="cls-2" d="M994.5,18.5a893.242,893.242,0,0,1-38.8,125.3C918.2,239.2,865.9,362.4,806,363c-54.6.5-48.5-85.6,31-190-64,84-115.1,90.5-120,68-5-23,21.1-52.9,45-42,22,10-39,180-109,212-41,18-70,5-70-53,0-47,10-74,19-86,33.5-44.6,75.6-34.1,72,2-1,10-4,36-40,70-27,23-73.4,58-208,87-6.1,27.6,35.2,60.3,79,29,28-20,49-71,33-119-27.7-83.2-111,56-111,56S469,0,527,75c41,53-45,227-140,301-4,49-5.6,70.7-15,93-21,50-55,62-43-63-8.6,89.8-25,109-56,124-53.7,26-70-61-53-102,29-89,79-89,105-56-25-31-78-37-105,56-18,92-53.5,143.4-92,150-151,26,0-302,0-368-12,57-15,103-94,143,378,22,536-183,536-183"/>
  </g>
</svg>
