<svg xmlns="http://www.w3.org/2000/svg" viewBox="0 0 1395.75 579.072">
  <defs>
    <style>
      .cls-1 {
        fill: none;
        stroke: #000;
        stroke-miterlimit: 10;
        stroke-width: 15px;
      }
    </style>
  </defs>
  <path id="Path_36" data-name="Path 36" class="cls-1" d="M588.9,1.4s-16,86-113,77c0,0-377-37-474-62,97,25,332,44,340,13-9,116-2.8,552.3,59,542,36-6,51-85,84-255,30-91,77-68,102-37-26-33-73-52-102,37-30.4,93.3,97,120,128-56-16,153-32,217,53,184,33-16,32-60,36-109,31-39,187-252,69-311s-33,389-33,389,71-269,144-105c21,47,.2,101.9-24,142-31.8,52.7-92.6,60.3-104,12-20-85,153.2-106.7,197-121,49-16,144-111,129-144s-77-40-86,35c-2.1,17.9,6,80,27,135s59,55,105-18,127-207,50-224c-63-14-67,43-66,66s14,120,172,67c-73,109-68,173-32,214s139-196,139-196" transform="translate(-0.028 -0.028)"/>
</svg>
